# xmcd CD database file
#
# Track frame offsets:
#	150
#	21728
#	44630
#	73090
#	101233
#	124268
#	158558
#	181485
#	196538
#	216145
#	239240
#	264330
#	295110
#	320030
#
# Disc length: 4518 seconds
#
# Revision: 1
# Processed by: cddbd v1.5.1PL2 Copyright (c) Steve Scherf et al.
# Submitted via: CDex 1.51
#
DISCID=dd11a40e
DTITLE=Tatsuo Sunaga - sunaga tatsuo no yoru no jazz ~Jazz Allnighters~ No.3
DYEAR=2006
DGENRE=Jazz
TTITLE0=Bent Axen - Bent Jaedig 6-5-4-3 - To Iskol' hof
TTITLE1=Johnny "Hammond" Smith - Cleopatra and the African Knight
TTITLE2=Bobby Timmons - So Tired
TTITLE3=The Jazz Five - Hootin'
TTITLE4=Bill Evans - You Go To My Head
TTITLE5=Roy Haynes with Booker Ervin - Under The Paris Skies
TTITLE6=Joe Henderson - I've Got You Under My Skin
TTITLE7=Dave Pike - Solar
TTITLE8=Mari Nakamoto - Englishman in New York
TTITLE9=Prince Lasha Quintet feat. Sonny Simmons - Congo Call
TTITLE10=Evans Brandshaw - The Trolly Song
TTITLE11=Eric Kloss - I Long To Belong To You
TTITLE12=Big Horns Bee - Nuttville
TTITLE13=Yusef Lateef - Love Theme From "Spartacus"
EXTD=YEAR: 2006
EXTT0=
EXTT1=
EXTT2=
EXTT3=
EXTT4=
EXTT5=
EXTT6=
EXTT7=
EXTT8=
EXTT9=
EXTT10=
EXTT11=
EXTT12=
EXTT13=
PLAYORDER=
